<svg xmlns="http://www.w3.org/2000/svg" xmlns:xlink="http://www.w3.org/1999/xlink" fill="none" version="1.1" width="24" height="24" viewBox="0 0 24 24"><defs><clipPath id="master_svg0_3_40"><rect x="0" y="0" width="24" height="24" rx="0"/></clipPath></defs><g clip-path="url(#master_svg0_3_40)"><g><path d="M17,4L22,4L22,6L20,6L20,21C20,21.5523,19.5523,22,19,22L5,22C4.44772,22,4,21.5523,4,21L4,6L2,6L2,4L7,4L7,2L17,2L17,4ZM9,9L9,17L11,17L11,9L9,9ZM13,9L13,17L15,17L15,9L13,9Z" fill="#457AF7" fill-opacity="1" style="mix-blend-mode:passthrough"/></g></g></svg>